<?xml version="1.0" encoding="UTF-8"?>
<svg id="Layer_1" xmlns="http://www.w3.org/2000/svg" version="1.1" viewBox="0 0 24 24">
  <!-- Generator: Adobe Illustrator 29.8.2, SVG Export Plug-In . SVG Version: 2.1.1 Build 3)  -->
  <path d="M18.84,18.85h-2.88v-4.51c0-1.08-.02-2.46-1.5-2.46s-1.73,1.17-1.73,2.38v4.59h-2.88v-9.28h2.77v1.26h.04c.39-.73,1.33-1.5,2.73-1.5,2.92,0,3.46,1.92,3.46,4.42v5.09h0ZM6.6,8.3c-.93,0-1.67-.75-1.67-1.67s.75-1.67,1.67-1.67,1.67.75,1.67,1.67-.75,1.67-1.67,1.67ZM8.05,18.85h-2.89v-9.28h2.89v9.28ZM20.28,2.28H3.71c-.79,0-1.43.63-1.43,1.4v16.64c0,.77.64,1.4,1.43,1.4h16.57c.79,0,1.44-.63,1.44-1.4V3.68c0-.77-.65-1.4-1.44-1.4h0Z"/>
</svg>